<svg width="147" height="32" viewBox="0 0 147 32" fill="none" xmlns="http://www.w3.org/2000/svg">
<path d="M15.8976 0C13.2832 -3.11761e-08 10.7092 0.64476 8.40352 1.87717C6.09785 3.10958 4.1317 4.89159 2.67923 7.06537C1.22676 9.23914 0.332805 11.7376 0.0765513 14.3394C-0.179702 16.9411 0.209654 19.566 1.21013 21.9813C2.21061 24.3967 3.79133 26.5281 5.81227 28.1866C7.83321 29.8452 10.232 30.9797 12.7961 31.4897C15.3603 31.9998 18.0106 31.8696 20.5124 31.1107C23.0142 30.3517 25.2903 28.9875 27.1389 27.1389L21.8784 21.8784C20.8949 22.862 19.6839 23.5878 18.3529 23.9916C17.0218 24.3953 15.6117 24.4646 14.2475 24.1932C12.8833 23.9219 11.607 23.3183 10.5318 22.4358C9.45658 21.5534 8.61557 20.4195 8.08328 19.1344C7.55098 17.8493 7.34383 16.4528 7.48017 15.0686C7.6165 13.6843 8.09212 12.355 8.86489 11.1985C9.63767 10.042 10.6837 9.09386 11.9104 8.43817C13.1372 7.78248 14.5066 7.43944 15.8976 7.43944L15.8976 0Z" fill="white"/>
<rect x="13.5938" y="13.5938" width="4.608" height="4.608" fill="#3091F2"/>
<path fill-rule="evenodd" clip-rule="evenodd" d="M32.1871 10.4834H27.1528V14.9762L32.1871 19.907V19.9183H32.1986H36.749V14.9762L32.1986 10.4947V10.4834H32.1871Z" fill="#3091F2"/>
<path fill-rule="evenodd" clip-rule="evenodd" d="M22.6945 10.5986H18.2017V15.0223L22.6945 19.469H22.7175L27.1527 23.7472L27.1527 19.469V14.9532L22.6945 10.5986Z" fill="#3091F2"/>
<path d="M15.8975 0H18.1093V7.4371H17.0034H15.8975V0Z" fill="white"/>
<path d="M54.3359 22.5895C53.2607 22.5895 52.2879 22.4167 51.4175 22.0711C50.5471 21.7255 49.7983 21.2391 49.1711 20.6119C48.5439 19.9847 48.0639 19.2487 47.7311 18.4039C47.3983 17.5463 47.2319 16.6183 47.2319 15.6199C47.2319 14.6215 47.4047 13.7063 47.7503 12.8743C48.1087 12.0295 48.6143 11.2935 49.2671 10.6663C49.9199 10.0391 50.6879 9.55266 51.5711 9.20706C52.4671 8.86146 53.4399 8.68866 54.4895 8.68866C55.2319 8.68866 55.9295 8.78466 56.5823 8.97666C57.2479 9.16866 57.8495 9.43106 58.3871 9.76386C58.9247 10.0967 59.3791 10.4807 59.7503 10.9159L57.7727 13.0087C57.4527 12.7015 57.1199 12.4455 56.7743 12.2407C56.4415 12.0359 56.0831 11.8759 55.6991 11.7607C55.3151 11.6327 54.9055 11.5687 54.4703 11.5687C53.9071 11.5687 53.3887 11.6711 52.9151 11.8759C52.4543 12.0807 52.0447 12.3687 51.6863 12.7399C51.3407 13.0983 51.0719 13.5271 50.8799 14.0263C50.6879 14.5127 50.5919 15.0439 50.5919 15.6199C50.5919 16.1959 50.6943 16.7335 50.8991 17.2327C51.1039 17.7319 51.3855 18.1671 51.7439 18.5383C52.1023 18.8967 52.5247 19.1847 53.0111 19.4023C53.5103 19.6071 54.0415 19.7095 54.6047 19.7095C55.0015 19.7095 55.3727 19.6455 55.7183 19.5175C56.0767 19.3895 56.3839 19.2167 56.6399 18.9991C56.8959 18.7815 57.1007 18.5255 57.2543 18.2311C57.4079 17.9239 57.4847 17.5975 57.4847 17.2519V16.7527L57.9071 17.4055H54.2015V14.8519H60.5183C60.5439 14.9927 60.5631 15.1847 60.5759 15.4279C60.5887 15.6711 60.5951 15.9079 60.5951 16.1383C60.6079 16.3687 60.6143 16.5415 60.6143 16.6567C60.6143 17.5271 60.4543 18.3271 60.1343 19.0567C59.8271 19.7735 59.3919 20.3943 58.8287 20.9191C58.2655 21.4439 57.5999 21.8535 56.8319 22.1479C56.0639 22.4423 55.2319 22.5895 54.3359 22.5895ZM63.1146 22.3975V8.95746H69.1626C70.0202 8.95746 70.7946 9.14306 71.4858 9.51426C72.1898 9.88546 72.7402 10.3975 73.137 11.0503C73.5338 11.6903 73.7322 12.4199 73.7322 13.2391C73.7322 14.0839 73.5338 14.8455 73.137 15.5239C72.7402 16.1895 72.1962 16.7143 71.505 17.0983C70.8138 17.4823 70.033 17.6743 69.1626 17.6743H66.225V22.3975H63.1146ZM70.5642 22.3975L67.1466 16.3303L70.4874 15.8503L74.289 22.3975H70.5642ZM66.225 15.1783H68.8746C69.2074 15.1783 69.4954 15.1079 69.7386 14.9671C69.9946 14.8135 70.1866 14.6023 70.3146 14.3335C70.4554 14.0647 70.5258 13.7575 70.5258 13.4119C70.5258 13.0663 70.449 12.7655 70.2954 12.5095C70.1418 12.2407 69.9178 12.0359 69.6234 11.8951C69.3418 11.7543 68.9962 11.6839 68.5866 11.6839H66.225V15.1783ZM76.5959 22.3975V8.95746H85.9655V11.7415H79.7639V19.6135H86.1575V22.3975H76.5959ZM78.1319 16.8871V14.2375H85.1015V16.8871H78.1319ZM92.4461 22.3975V15.6967L92.5805 16.6375L87.1468 8.95746H90.8525L94.9997 14.9095L93.3101 14.8519L97.0541 8.95746H100.644L95.4413 16.8487L95.7293 15.5431V22.3975H92.4461Z" fill="white"/>
<path d="M102.208 22.3975V8.95746H105.127L110.023 16.9255L107.93 16.9063L112.884 8.95746H115.687V22.3975H112.519V18.2119C112.519 17.0599 112.544 16.0231 112.596 15.1015C112.66 14.1799 112.762 13.2647 112.903 12.3559L113.268 13.3543L109.543 19.1335H108.276L104.628 13.3927L104.992 12.3559C105.133 13.2135 105.229 14.0967 105.28 15.0055C105.344 15.9015 105.376 16.9703 105.376 18.2119V22.3975H102.208ZM117.356 22.3975L122.674 8.95746H125.439L130.719 22.3975H127.417L124.882 15.5815C124.78 15.3127 124.677 15.0247 124.575 14.7175C124.473 14.4103 124.37 14.0967 124.268 13.7767C124.165 13.4439 124.063 13.1239 123.961 12.8167C123.871 12.4967 123.794 12.2023 123.73 11.9335L124.306 11.9143C124.229 12.2343 124.14 12.5479 124.037 12.8551C123.948 13.1623 123.852 13.4695 123.749 13.7767C123.66 14.0711 123.557 14.3719 123.442 14.6791C123.327 14.9735 123.218 15.2807 123.116 15.6007L120.581 22.3975H117.356ZM119.89 19.8247L120.908 17.3671H127.09L128.089 19.8247H119.89ZM134.358 22.3975V11.8375H130.364V8.95746H141.712V11.8375H137.622V22.3975H134.358Z" fill="#3091F2"/>
</svg>
