<svg width="189" height="28" viewBox="0 0 189 28" fill="none" xmlns="http://www.w3.org/2000/svg">
<path d="M57.7385 21H51.5945V18.024H57.6665C60.6905 18.024 63.1145 15.576 63.1145 12.576C63.1145 9.552 60.6905 7.128 57.6665 7.128H51.5945V4.152H57.6665C62.3225 4.152 66.0905 7.92 66.0905 12.576C66.0905 17.208 62.3465 20.952 57.7385 21ZM68.493 21V4.176H71.469V21H68.493ZM85.3802 14.088H80.5802V11.112H85.3802C88.1162 11.112 90.3242 13.32 90.3242 16.056C90.3242 18.792 88.1162 21 85.3802 21H82.2362C77.6042 20.976 73.8602 17.232 73.8602 12.6C73.8602 7.944 77.6282 4.176 82.2842 4.176H88.3562V7.152H82.2842C79.2602 7.152 76.8362 9.576 76.8362 12.6C76.8362 15.6 79.2602 18.024 82.2842 18.024H85.3802C87.9962 18.024 87.9962 14.088 85.3802 14.088ZM92.7273 21V4.176H95.7033V21H92.7273ZM101.071 12.576V21H98.0945V12.576C98.0945 7.92 101.839 4.152 106.591 4.152H112.663V7.128H106.519C103.495 7.128 101.071 9.552 101.071 12.576ZM110.359 14.064H104.767V11.088H110.359V14.064ZM125.887 13.704L129.775 21H126.415L124.759 17.832C123.847 16.272 122.959 14.064 121.975 14.064H120.007C118.927 14.064 118.039 14.952 118.039 16.032V21H115.063V16.032C115.063 13.296 117.271 11.088 120.007 11.088H124.015C126.631 11.088 126.631 7.128 124.015 7.128H115.063V4.152H124.015C129.439 4.152 130.879 11.664 125.887 13.704ZM132.173 21V4.176H135.149V21H132.173ZM142.508 18.024H148.748V21H142.508C139.772 21 137.54 18.768 137.54 16.032V4.176H140.516V16.032C140.516 17.136 141.404 18.024 142.508 18.024ZM154.93 18.024H161.17V21H154.93C152.194 21 149.962 18.768 149.962 16.032V4.176H152.938V16.032C152.938 17.136 153.826 18.024 154.93 18.024ZM167.914 4.152H176.77V7.128H167.914C165.322 7.128 165.322 11.088 167.914 11.088H173.434C176.17 11.088 178.402 13.296 178.402 16.032C178.402 18.768 176.17 21 173.434 21H164.122V18.024H173.434C176.05 18.024 176.05 14.064 173.434 14.064H167.794C165.106 13.992 162.97 11.808 162.97 9.096C162.97 6.36 165.178 4.152 167.914 4.152Z" fill="#A1BFE2"/>
<g filter="url(#filter0_d_1_1019)">
<path d="M2.7002 25.5312C6.00716 25.5695 9.1951 24.3215 11.5627 22.0618C13.9303 19.8021 15.2836 16.7158 15.3249 13.4819C15.3663 10.248 14.0922 7.13136 11.783 4.8176C9.47376 2.50384 6.31859 1.1825 3.01163 1.14429L2.93945 6.79658C4.71347 6.81705 6.40604 7.52592 7.64481 8.76709C8.88359 10.0083 9.56704 11.6803 9.5449 13.4151C9.52276 15.1499 8.79678 16.8056 7.52667 18.0178C6.25656 19.23 4.5464 19.8995 2.7723 19.879L2.7002 25.5312Z" fill="#A1BFE2"/>
</g>
<path d="M33.3072 1.00412C35.2253 1.0018 36.7803 2.55486 36.7803 4.47298C36.7803 6.3911 35.2253 7.94793 33.3072 7.95025L19.8893 7.96648C17.9712 7.96881 16.4163 6.41574 16.4163 4.49762C16.4163 2.5795 17.9712 1.02268 19.8893 1.02036L33.3072 1.00412Z" fill="#A1BFE2"/>
<path d="M36.4275 4.50643C36.4056 6.2322 35.0099 7.6152 33.31 7.59543C31.6102 7.57567 30.2499 6.16063 30.2718 4.43485C30.2938 2.70908 31.6895 1.32608 33.3894 1.34585C35.0892 1.36561 36.4494 2.78065 36.4275 4.50643Z" fill="#A1BFE2"/>
<g filter="url(#filter1_i_1_1019)">
<path d="M5.85624 13.3296C5.83584 14.9365 4.51668 16.2239 2.90982 16.2053C1.30296 16.1866 0.0168762 14.8688 0.037278 13.262C0.0576798 11.6551 1.37684 10.3677 2.9837 10.3864C4.59056 10.4051 5.87665 11.7228 5.85624 13.3296Z" fill="#176169"/>
</g>
<path d="M5.85624 13.3296C5.83584 14.9365 4.51668 16.2239 2.90982 16.2053C1.30296 16.1866 0.0168762 14.8688 0.037278 13.262C0.0576798 11.6551 1.37684 10.3677 2.9837 10.3864C4.59056 10.4051 5.87665 11.7228 5.85624 13.3296Z" fill="#A1BFE2"/>
<path d="M26.6598 9.94943C28.5779 9.94711 30.1328 11.5002 30.1328 13.4183C30.1328 15.3364 28.5779 16.8932 26.6598 16.8956L20.1004 16.9035C18.1823 16.9058 16.6273 15.3528 16.6273 13.4346C16.6273 11.5165 18.1823 9.95969 20.1004 9.95737L26.6598 9.94943Z" fill="#0D0D0D"/>
<path d="M26.6634 16.5323C28.3632 16.5521 29.759 15.169 29.7809 13.4433C29.8028 11.7175 28.4426 10.3025 26.7428 10.2827C25.0429 10.2629 23.6472 11.6459 23.6253 13.3717C23.6034 15.0975 24.9636 16.5125 26.6634 16.5323Z" fill="#A1BFE2"/>
<g filter="url(#filter2_d_1_1019)">
<path d="M22.9108 22.2715C22.889 23.9932 21.4756 25.3726 19.754 25.3526C18.0323 25.3325 16.6544 23.9207 16.6762 22.199C16.6981 20.4774 18.1115 19.098 19.8331 19.118C21.5548 19.1381 22.9327 20.5499 22.9108 22.2715Z" fill="#A1BFE2"/>
</g>
<path d="M26.6598 9.94113C28.5779 9.93881 30.1328 11.4919 30.1328 13.41C30.1328 15.3281 28.5779 16.8849 26.6598 16.8873L20.1004 16.8952C18.1823 16.8975 16.6273 15.3445 16.6273 13.4263C16.6273 11.5082 18.1823 9.95139 20.1004 9.94907L26.6598 9.94113Z" fill="#A1BFE2"/>
<path d="M26.6634 16.5323C28.3632 16.5521 29.759 15.169 29.7809 13.4433C29.8028 11.7175 28.4426 10.3025 26.7428 10.2827C25.0429 10.2629 23.6472 11.6459 23.6253 13.3717C23.6034 15.0975 24.9636 16.5125 26.6634 16.5323Z" fill="#A1BFE2"/>
<path d="M16.4355 22.2554C16.4378 24.1735 17.9947 25.7284 19.9128 25.7284C21.8309 25.7284 23.384 24.1735 23.3817 22.2554L23.371 13.4098C23.3686 11.4918 21.8118 9.93677 19.8937 9.93677C17.9756 9.93677 16.4225 11.4918 16.4248 13.4098L16.4355 22.2554Z" fill="#A1BFE2"/>
<path d="M19.9145 25.1592C21.6143 25.179 23.0101 23.796 23.032 22.0702C23.0539 20.3445 21.6936 18.9294 19.9938 18.9096C18.2939 18.8899 16.8982 20.2729 16.8762 21.9987C16.8543 23.7244 18.2146 25.1395 19.9145 25.1592Z" fill="#A1BFE2"/>
<mask id="mask0_1_1019" style="mask-type:alpha" maskUnits="userSpaceOnUse" x="16" y="9" width="11" height="8">
<path d="M23.1324 9.94113C25.0505 9.93881 26.6055 11.4919 26.6055 13.41C26.6055 15.3281 25.0505 16.8849 23.1324 16.8873L19.8947 16.8912C17.9765 16.8935 16.4216 15.3404 16.4216 13.4223C16.4216 11.5042 17.9765 9.94737 19.8947 9.94505L23.1324 9.94113Z" fill="#FF3232"/>
</mask>
<g mask="url(#mask0_1_1019)">
<path d="M16.4336 22.2553C16.4359 24.1735 17.9926 25.7284 19.9108 25.7284C21.8289 25.7284 23.3819 24.1735 23.3796 22.2553L23.3689 13.4098C23.3666 11.4918 21.8098 9.93677 19.8917 9.93677C17.9735 9.93677 16.4205 11.4917 16.4229 13.4098L16.4336 22.2553Z" fill="#0D0D0D" fill-opacity="0.2"/>
</g>
<defs>
<filter id="filter0_d_1_1019" x="2.17604" y="0.489087" width="13.6743" height="25.4363" filterUnits="userSpaceOnUse" color-interpolation-filters="sRGB">
<feFlood flood-opacity="0" result="BackgroundImageFix"/>
<feColorMatrix in="SourceAlpha" type="matrix" values="0 0 0 0 0 0 0 0 0 0 0 0 0 0 0 0 0 0 127 0" result="hardAlpha"/>
<feOffset dy="-0.13104"/>
<feGaussianBlur stdDeviation="0.26208"/>
<feComposite in2="hardAlpha" operator="out"/>
<feColorMatrix type="matrix" values="0 0 0 0 0 0 0 0 0 0 0 0 0 0 0 0 0 0 0.25 0"/>
<feBlend mode="normal" in2="BackgroundImageFix" result="effect1_dropShadow_1_1019"/>
<feBlend mode="normal" in="SourceGraphic" in2="effect1_dropShadow_1_1019" result="shape"/>
</filter>
<filter id="filter1_i_1_1019" x="0.0371094" y="10.3862" width="5.81934" height="6.3435" filterUnits="userSpaceOnUse" color-interpolation-filters="sRGB">
<feFlood flood-opacity="0" result="BackgroundImageFix"/>
<feBlend mode="normal" in="SourceGraphic" in2="BackgroundImageFix" result="shape"/>
<feColorMatrix in="SourceAlpha" type="matrix" values="0 0 0 0 0 0 0 0 0 0 0 0 0 0 0 0 0 0 127 0" result="hardAlpha"/>
<feOffset dy="0.52416"/>
<feGaussianBlur stdDeviation="0.26208"/>
<feComposite in2="hardAlpha" operator="arithmetic" k2="-1" k3="1"/>
<feColorMatrix type="matrix" values="0 0 0 0 0 0 0 0 0 0 0 0 0 0 0 0 0 0 0.25 0"/>
<feBlend mode="normal" in2="shape" result="effect1_innerShadow_1_1019"/>
</filter>
<filter id="filter2_d_1_1019" x="16.1516" y="19.1179" width="7.28367" height="7.28318" filterUnits="userSpaceOnUse" color-interpolation-filters="sRGB">
<feFlood flood-opacity="0" result="BackgroundImageFix"/>
<feColorMatrix in="SourceAlpha" type="matrix" values="0 0 0 0 0 0 0 0 0 0 0 0 0 0 0 0 0 0 127 0" result="hardAlpha"/>
<feOffset dy="0.52416"/>
<feGaussianBlur stdDeviation="0.26208"/>
<feComposite in2="hardAlpha" operator="out"/>
<feColorMatrix type="matrix" values="0 0 0 0 0 0 0 0 0 0 0 0 0 0 0 0 0 0 0.25 0"/>
<feBlend mode="normal" in2="BackgroundImageFix" result="effect1_dropShadow_1_1019"/>
<feBlend mode="normal" in="SourceGraphic" in2="effect1_dropShadow_1_1019" result="shape"/>
</filter>
</defs>
</svg>
